# xmcd
#
# Track frame offsets: 
#        150
#        18704
#        46661
#        89996
#        133142
#        156853
#        181753
#        200159
#        233451
#
# Disc length: 3670 seconds
#
# Revision: 0
# Processed by: cddbd v1.5.2PL0 Copyright (c) Steve Scherf et al.
# Submitted via: ExactAudioCopy v0.95a4
#
DISCID=770e5409
DTITLE=Dexter Allen - Live From Ground Zero Blues Club
DYEAR=2018
DGENRE=Blues
TTITLE0=Coming Home To Mississippi
TTITLE1=Put Your Blues On Me
TTITLE2=Tired
TTITLE3=Nighttime Loving
TTITLE4=Hooked
TTITLE5=Still Called The Blues
TTITLE6=Big Barn Bed
TTITLE7=Let It Be Me
TTITLE8=Ain't That Shame
EXTD=
EXTT0=
EXTT1=
EXTT2=
EXTT3=
EXTT4=
EXTT5=
EXTT6=
EXTT7=
EXTT8=
PLAYORDER=
